# xmcd
#
# Track frame offsets:
#	150
#	14958
#	29882
#	46342
#	64115
#	76124
#	95156
#	114072
#	114773
#	124183
#	141003
#	161826
#	178203
#	195174
#	215592
#	217184
#	235142
#	251627
#
# Disc length: 3704 seconds
#
# Revision: 1
# Processed by: cddbd v1.5.2PL0 Copyright (c) Steve Scherf et al.
# Submitted via: audiograbber 1.83.01
#
DISCID=070e7612
DTITLE=Young Cellski - Mr. Predicter
DYEAR=1995
DGENRE=Rap
TTITLE0=Cellski - It's On
TTITLE1=Cellski - Never Be Right
TTITLE2=Cellski, Mr. Cee - On The Grind
TTITLE3=Cellski, Lil Swoop - Peep Game
TTITLE4=Cellski - The Inner City
TTITLE5=Cellski - Deep In The Game
TTITLE6=Cellski, Baldhead Ric, S.B., Lil Swoop - Stressed Out
TTITLE7=Cellski - Untitled
TTITLE8=Cellski, San Quinn, Mac-10, Suga Bear - Fogtown Shots
TTITLE9=Cellski - Young Niggas
TTITLE10=Cellski - Brain Dead
TTITLE11=Cellski, Cougnut, Baldhead Rick - Retaliation
TTITLE12=Cellski - Do You Feel Me
TTITLE13=Cellski - Livin In The Bay
TTITLE14=Cellski - Who Is These Niggas
TTITLE15=Cellski, Black C, Hitman - Funk
TTITLE16=Cellski - It's Like That
TTITLE17=Cellski, Young Ed, Lil Swoop, Dirt Bag, Baldhead Ric, S.B., Leo J - Th
TTITLE17=e Last Song
EXTD=Cashflow420.com
EXTT0=
EXTT1=
EXTT2=
EXTT3=
EXTT4=
EXTT5=
EXTT6=
EXTT7=
EXTT8=
EXTT9=
EXTT10=
EXTT11=
EXTT12=
EXTT13=
EXTT14=
EXTT15=
EXTT16=
EXTT17=
PLAYORDER=
